<svg width="321" height="54" viewBox="0 0 321 54" fill="none" xmlns="http://www.w3.org/2000/svg">
<path d="M3 12.625V25" stroke="#E0E0E0" stroke-opacity="0.5" stroke-linecap="round"/>
<path d="M8 7.86523V24.9998" stroke="#E0E0E0" stroke-opacity="0.5" stroke-linecap="round"/>
<path d="M13 18.6523V24.9985" stroke="#E0E0E0" stroke-opacity="0.5" stroke-linecap="round"/>
<path d="M18 12.9414V24.9991" stroke="#E0E0E0" stroke-opacity="0.5" stroke-linecap="round"/>
<path d="M23 12.625V25" stroke="#E0E0E0" stroke-opacity="0.5" stroke-linecap="round"/>
<path d="M28 5.32617V24.9992" stroke="#E0E0E0" stroke-opacity="0.5" stroke-linecap="round"/>
<path d="M33 11.0371V24.9986" stroke="#E0E0E0" stroke-opacity="0.5" stroke-linecap="round"/>
<path d="M38 19.9219V24.9988" stroke="#E0E0E0" stroke-opacity="0.5" stroke-linecap="round"/>
<path d="M43 16.75V25" stroke="#E0E0E0" stroke-opacity="0.5" stroke-linecap="round"/>
<path d="M48 12.625V25" stroke="#E0E0E0" stroke-opacity="0.5" stroke-linecap="round"/>
<path d="M53 9.76758V24.9983" stroke="#E0E0E0" stroke-opacity="0.5" stroke-linecap="round"/>
<path d="M58 18.0176V24.9983" stroke="#E0E0E0" stroke-opacity="0.5" stroke-linecap="round"/>
<path d="M63 15.4805V24.9997" stroke="#E0E0E0" stroke-opacity="0.5" stroke-linecap="round"/>
<path d="M68 16.1152V24.9998" stroke="#E0E0E0" stroke-opacity="0.5" stroke-linecap="round"/>
<path d="M73 14.8457V24.9995" stroke="#E0E0E0" stroke-opacity="0.5" stroke-linecap="round"/>
<path d="M78 16.75V25" stroke="#E0E0E0" stroke-opacity="0.5" stroke-linecap="round"/>
<path d="M83 15.4805V24.9997" stroke="#E0E0E0" stroke-opacity="0.5" stroke-linecap="round"/>
<path d="M88 10.4023V24.9985" stroke="#E0E0E0" stroke-opacity="0.5" stroke-linecap="round"/>
<path d="M93 23.0957V24.9995" stroke="#E0E0E0" stroke-opacity="0.5" stroke-linecap="round"/>
<path d="M98 19.9219V24.9988" stroke="#E0E0E0" stroke-opacity="0.5" stroke-linecap="round"/>
<path d="M103 23.0957V24.9995" stroke="#E0E0E0" stroke-opacity="0.5" stroke-linecap="round"/>
<path d="M108 11.6719V24.9988" stroke="#E0E0E0" stroke-opacity="0.5" stroke-linecap="round"/>
<path d="M113 15.4805V24.9997" stroke="#E0E0E0" stroke-opacity="0.5" stroke-linecap="round"/>
<path d="M118 15.4805V24.9997" stroke="#E0E0E0" stroke-opacity="0.5" stroke-linecap="round"/>
<path d="M123 18.0176V24.9983" stroke="#E0E0E0" stroke-opacity="0.5" stroke-linecap="round"/>
<path d="M128 20.5566V24.9989" stroke="#E0E0E0" stroke-opacity="0.5" stroke-linecap="round"/>
<path d="M133 8.5V25" stroke="#E0E0E0" stroke-opacity="0.5" stroke-linecap="round"/>
<path d="M138 14.8457V24.9995" stroke="#E0E0E0" stroke-opacity="0.5" stroke-linecap="round"/>
<path d="M143 12.625V25" stroke="#E0E0E0" stroke-opacity="0.5" stroke-linecap="round"/>
<path d="M148 17.3828V24.9982" stroke="#E0E0E0" stroke-opacity="0.2" stroke-linecap="round"/>
<path d="M153 9.76758V24.9983" stroke="#E0E0E0" stroke-opacity="0.2" stroke-linecap="round"/>
<path d="M158 11.0371V24.9986" stroke="#E0E0E0" stroke-opacity="0.2" stroke-linecap="round"/>
<path d="M163 9.76758V24.9983" stroke="#E0E0E0" stroke-opacity="0.2" stroke-linecap="round"/>
<path d="M168 9.76758V24.9983" stroke="#E0E0E0" stroke-opacity="0.2" stroke-linecap="round"/>
<path d="M173 9.76758V24.9983" stroke="#E0E0E0" stroke-opacity="0.2" stroke-linecap="round"/>
<path d="M178 16.75V25" stroke="#E0E0E0" stroke-opacity="0.2" stroke-linecap="round"/>
<path d="M183 17.3828V24.9982" stroke="#E0E0E0" stroke-opacity="0.2" stroke-linecap="round"/>
<path d="M188 4.69141V24.9991" stroke="#E0E0E0" stroke-opacity="0.2" stroke-linecap="round"/>
<path d="M193 9.13281V24.9982" stroke="#E0E0E0" stroke-opacity="0.2" stroke-linecap="round"/>
<path d="M198 9.13281V24.9982" stroke="#E0E0E0" stroke-opacity="0.2" stroke-linecap="round"/>
<path d="M203 18.0176V24.9983" stroke="#E0E0E0" stroke-opacity="0.2" stroke-linecap="round"/>
<path d="M208 7.86523V24.9998" stroke="#E0E0E0" stroke-opacity="0.2" stroke-linecap="round"/>
<path d="M213 21.8262V24.9992" stroke="#E0E0E0" stroke-opacity="0.2" stroke-linecap="round"/>
<path d="M218 7.86523V24.9998" stroke="#E0E0E0" stroke-opacity="0.2" stroke-linecap="round"/>
<path d="M223 9.13281V24.9982" stroke="#E0E0E0" stroke-opacity="0.2" stroke-linecap="round"/>
<path d="M228 10.4023V24.9985" stroke="#E0E0E0" stroke-opacity="0.2" stroke-linecap="round"/>
<path d="M233 12.625V25" stroke="#E0E0E0" stroke-opacity="0.2" stroke-linecap="round"/>
<path d="M238 9.76758V24.9983" stroke="#E0E0E0" stroke-opacity="0.2" stroke-linecap="round"/>
<path d="M243 11.0371V24.9986" stroke="#E0E0E0" stroke-opacity="0.2" stroke-linecap="round"/>
<path d="M248 12.625V25" stroke="#E0E0E0" stroke-opacity="0.2" stroke-linecap="round"/>
<path d="M253 8.5V25" stroke="#E0E0E0" stroke-opacity="0.2" stroke-linecap="round"/>
<path d="M258 19.2871V24.9986" stroke="#E0E0E0" stroke-opacity="0.2" stroke-linecap="round"/>
<path d="M263 16.75V25" stroke="#E0E0E0" stroke-opacity="0.2" stroke-linecap="round"/>
<path d="M268 12.625V25" stroke="#E0E0E0" stroke-opacity="0.2" stroke-linecap="round"/>
<path d="M273 9.76758V24.9983" stroke="#E0E0E0" stroke-opacity="0.2" stroke-linecap="round"/>
<path d="M278 15.4805V24.9997" stroke="#E0E0E0" stroke-opacity="0.2" stroke-linecap="round"/>
<path d="M283 14.2109V24.9994" stroke="#E0E0E0" stroke-opacity="0.2" stroke-linecap="round"/>
<path d="M288 17.3828V24.9982" stroke="#E0E0E0" stroke-opacity="0.2" stroke-linecap="round"/>
<path d="M293 19.2871V24.9986" stroke="#E0E0E0" stroke-opacity="0.2" stroke-linecap="round"/>
<path d="M298 21.1914V24.9991" stroke="#E0E0E0" stroke-opacity="0.2" stroke-linecap="round"/>
<path d="M303 19.2871V24.9986" stroke="#E0E0E0" stroke-opacity="0.2" stroke-linecap="round"/>
<path d="M308 20.5566V24.9989" stroke="#E0E0E0" stroke-opacity="0.2" stroke-linecap="round"/>
<path d="M313 17.3828V24.9982" stroke="#E0E0E0" stroke-opacity="0.2" stroke-linecap="round"/>
<path d="M318 21.1914V24.9991" stroke="#E0E0E0" stroke-opacity="0.2" stroke-linecap="round"/>
<path d="M3 41.373V28.998" stroke="#E0E0E0" stroke-opacity="0.5" stroke-linecap="round"/>
<path d="M8 46.1328V28.9982" stroke="#E0E0E0" stroke-opacity="0.5" stroke-linecap="round"/>
<path d="M13 35.3457V28.9995" stroke="#E0E0E0" stroke-opacity="0.5" stroke-linecap="round"/>
<path d="M18 41.0566V28.9989" stroke="#E0E0E0" stroke-opacity="0.5" stroke-linecap="round"/>
<path d="M23 41.373V28.998" stroke="#E0E0E0" stroke-opacity="0.5" stroke-linecap="round"/>
<path d="M28 48.6719V28.9988" stroke="#E0E0E0" stroke-opacity="0.5" stroke-linecap="round"/>
<path d="M33 42.9609V28.9994" stroke="#E0E0E0" stroke-opacity="0.5" stroke-linecap="round"/>
<path d="M38 34.0762V28.9992" stroke="#E0E0E0" stroke-opacity="0.5" stroke-linecap="round"/>
<path d="M43 37.248V28.998" stroke="#E0E0E0" stroke-opacity="0.5" stroke-linecap="round"/>
<path d="M48 41.373V28.998" stroke="#E0E0E0" stroke-opacity="0.5" stroke-linecap="round"/>
<path d="M53 44.2305V28.9997" stroke="#E0E0E0" stroke-opacity="0.5" stroke-linecap="round"/>
<path d="M58 35.9805V28.9997" stroke="#E0E0E0" stroke-opacity="0.5" stroke-linecap="round"/>
<path d="M63 38.5176V28.9983" stroke="#E0E0E0" stroke-opacity="0.5" stroke-linecap="round"/>
<path d="M68 37.8828V28.9982" stroke="#E0E0E0" stroke-opacity="0.5" stroke-linecap="round"/>
<path d="M73 39.1523V28.9985" stroke="#E0E0E0" stroke-opacity="0.5" stroke-linecap="round"/>
<path d="M78 37.248V28.998" stroke="#E0E0E0" stroke-opacity="0.5" stroke-linecap="round"/>
<path d="M83 38.5176V28.9983" stroke="#E0E0E0" stroke-opacity="0.5" stroke-linecap="round"/>
<path d="M88 43.5957V28.9995" stroke="#E0E0E0" stroke-opacity="0.5" stroke-linecap="round"/>
<path d="M93 30.9023V28.9985" stroke="#E0E0E0" stroke-opacity="0.5" stroke-linecap="round"/>
<path d="M98 34.0762V28.9992" stroke="#E0E0E0" stroke-opacity="0.5" stroke-linecap="round"/>
<path d="M103 30.9023V28.9985" stroke="#E0E0E0" stroke-opacity="0.5" stroke-linecap="round"/>
<path d="M108 42.3262V28.9992" stroke="#E0E0E0" stroke-opacity="0.5" stroke-linecap="round"/>
<path d="M113 38.5176V28.9983" stroke="#E0E0E0" stroke-opacity="0.5" stroke-linecap="round"/>
<path d="M118 38.5176V28.9983" stroke="#E0E0E0" stroke-opacity="0.5" stroke-linecap="round"/>
<path d="M123 35.9805V28.9997" stroke="#E0E0E0" stroke-opacity="0.5" stroke-linecap="round"/>
<path d="M128 33.4414V28.9991" stroke="#E0E0E0" stroke-opacity="0.5" stroke-linecap="round"/>
<path d="M133 45.498V28.998" stroke="#E0E0E0" stroke-opacity="0.5" stroke-linecap="round"/>
<path d="M138 39.1523V28.9985" stroke="#E0E0E0" stroke-opacity="0.5" stroke-linecap="round"/>
<path d="M143 41.373V28.998" stroke="#E0E0E0" stroke-opacity="0.5" stroke-linecap="round"/>
<path d="M148 36.6152V28.9998" stroke="#E0E0E0" stroke-opacity="0.2" stroke-linecap="round"/>
<path d="M153 44.2305V28.9997" stroke="#E0E0E0" stroke-opacity="0.2" stroke-linecap="round"/>
<path d="M158 42.9609V28.9994" stroke="#E0E0E0" stroke-opacity="0.2" stroke-linecap="round"/>
<path d="M163 44.2305V28.9997" stroke="#E0E0E0" stroke-opacity="0.2" stroke-linecap="round"/>
<path d="M168 44.2305V28.9997" stroke="#E0E0E0" stroke-opacity="0.2" stroke-linecap="round"/>
<path d="M173 44.2305V28.9997" stroke="#E0E0E0" stroke-opacity="0.2" stroke-linecap="round"/>
<path d="M178 37.248V28.998" stroke="#E0E0E0" stroke-opacity="0.2" stroke-linecap="round"/>
<path d="M183 36.6152V28.9998" stroke="#E0E0E0" stroke-opacity="0.2" stroke-linecap="round"/>
<path d="M188 49.3066V28.9989" stroke="#E0E0E0" stroke-opacity="0.2" stroke-linecap="round"/>
<path d="M193 44.8652V28.9998" stroke="#E0E0E0" stroke-opacity="0.2" stroke-linecap="round"/>
<path d="M198 44.8652V28.9998" stroke="#E0E0E0" stroke-opacity="0.2" stroke-linecap="round"/>
<path d="M203 35.9805V28.9997" stroke="#E0E0E0" stroke-opacity="0.2" stroke-linecap="round"/>
<path d="M208 46.1328V28.9982" stroke="#E0E0E0" stroke-opacity="0.2" stroke-linecap="round"/>
<path d="M213 32.1719V28.9988" stroke="#E0E0E0" stroke-opacity="0.2" stroke-linecap="round"/>
<path d="M218 46.1328V28.9982" stroke="#E0E0E0" stroke-opacity="0.2" stroke-linecap="round"/>
<path d="M223 44.8652V28.9998" stroke="#E0E0E0" stroke-opacity="0.2" stroke-linecap="round"/>
<path d="M228 43.5957V28.9995" stroke="#E0E0E0" stroke-opacity="0.2" stroke-linecap="round"/>
<path d="M233 41.373V28.998" stroke="#E0E0E0" stroke-opacity="0.2" stroke-linecap="round"/>
<path d="M238 44.2305V28.9997" stroke="#E0E0E0" stroke-opacity="0.2" stroke-linecap="round"/>
<path d="M243 42.9609V28.9994" stroke="#E0E0E0" stroke-opacity="0.2" stroke-linecap="round"/>
<path d="M248 41.373V28.998" stroke="#E0E0E0" stroke-opacity="0.2" stroke-linecap="round"/>
<path d="M253 45.498V28.998" stroke="#E0E0E0" stroke-opacity="0.2" stroke-linecap="round"/>
<path d="M258 34.7109V28.9994" stroke="#E0E0E0" stroke-opacity="0.2" stroke-linecap="round"/>
<path d="M263 37.248V28.998" stroke="#E0E0E0" stroke-opacity="0.2" stroke-linecap="round"/>
<path d="M268 41.373V28.998" stroke="#E0E0E0" stroke-opacity="0.2" stroke-linecap="round"/>
<path d="M273 44.2305V28.9997" stroke="#E0E0E0" stroke-opacity="0.2" stroke-linecap="round"/>
<path d="M278 38.5176V28.9983" stroke="#E0E0E0" stroke-opacity="0.2" stroke-linecap="round"/>
<path d="M283 39.7871V28.9986" stroke="#E0E0E0" stroke-opacity="0.2" stroke-linecap="round"/>
<path d="M288 36.6152V28.9998" stroke="#E0E0E0" stroke-opacity="0.2" stroke-linecap="round"/>
<path d="M293 34.7109V28.9994" stroke="#E0E0E0" stroke-opacity="0.2" stroke-linecap="round"/>
<path d="M298 32.8066V28.9989" stroke="#E0E0E0" stroke-opacity="0.2" stroke-linecap="round"/>
<path d="M303 34.7109V28.9994" stroke="#E0E0E0" stroke-opacity="0.2" stroke-linecap="round"/>
<path d="M308 33.4414V28.9991" stroke="#E0E0E0" stroke-opacity="0.2" stroke-linecap="round"/>
<path d="M313 36.6152V28.9998" stroke="#E0E0E0" stroke-opacity="0.2" stroke-linecap="round"/>
<path d="M318 32.8066V28.9989" stroke="#E0E0E0" stroke-opacity="0.2" stroke-linecap="round"/>
<path d="M2 27L319 27" stroke="#898989" stroke-opacity="0.27" stroke-width="3" stroke-linecap="round"/>
<path d="M2 27H144.381" stroke="#E0E0E0" stroke-width="3" stroke-linecap="round"/>
<circle cx="144" cy="27" r="4" fill="#E0E0E0"/>
</svg>
